# xmcd
#
# Track frame offsets:
#	150
#	16712
#	40722
#	64930
#	81492
#
# Disc length: 1403 seconds
#
# Revision: 1
# Processed by: cddbd v1.5PL3 Copyright (c) Steve Scherf et al.
# Submitted via: CDex 1.50Beta5
#
DISCID=35057905
DTITLE=倖田來未 - Love Across The Ocean
DYEAR=2002
DGENRE=Pop
TTITLE0=Love Across The Ocean
TTITLE1=The Meaning Of Peace
TTITLE2=So Into You [Dub's Electro Remix]
TTITLE3=Love Across The Ocean [Instrumental]
TTITLE4=The Meaning Of Peace [Instrumental]
EXTD=
EXTT0=
EXTT1=
EXTT2=
EXTT3=
EXTT4=
PLAYORDER=
